<svg xmlns="http://www.w3.org/2000/svg" xmlns:xlink="http://www.w3.org/1999/xlink" width="3200" zoomAndPan="magnify" viewBox="0 0 2400 1499.999933" height="2000" preserveAspectRatio="xMidYMid meet" version="1.0"><defs><clipPath id="cb8a056792"><path d="M 2026 946 L 2400 946 L 2400 1500 L 2026 1500 Z M 2026 946 " clip-rule="nonzero"/></clipPath><clipPath id="5793fde542"><path d="M 2261.453125 798.648438 L 2807.5 1278.230469 L 2365.53125 1781.449219 L 1819.484375 1301.867188 Z M 2261.453125 798.648438 " clip-rule="nonzero"/></clipPath><clipPath id="0064d58ba5"><path d="M 2261.453125 798.648438 L 2807.5 1278.230469 L 2365.53125 1781.449219 L 1819.484375 1301.867188 Z M 2261.453125 798.648438 " clip-rule="nonzero"/></clipPath><clipPath id="335d0ba7ae"><path d="M 2019 876 L 2400 876 L 2400 1500 L 2019 1500 Z M 2019 876 " clip-rule="nonzero"/></clipPath><clipPath id="8eec978bb2"><path d="M 2261.453125 798.648438 L 2807.5 1278.230469 L 2365.53125 1781.449219 L 1819.484375 1301.867188 Z M 2261.453125 798.648438 " clip-rule="nonzero"/></clipPath><clipPath id="b322ebae06"><path d="M 2261.453125 798.648438 L 2807.5 1278.230469 L 2365.53125 1781.449219 L 1819.484375 1301.867188 Z M 2261.453125 798.648438 " clip-rule="nonzero"/></clipPath><clipPath id="4ae162d1e9"><path d="M 1451 1255 L 2400 1255 L 2400 1500 L 1451 1500 Z M 1451 1255 " clip-rule="nonzero"/></clipPath><clipPath id="f1b68c8186"><path d="M 2649.367188 1344.84375 L 2305.550781 2238.753906 L 1308.039062 1855.089844 L 1651.855469 961.179688 Z M 2649.367188 1344.84375 " clip-rule="nonzero"/></clipPath><clipPath id="ff17f317f2"><path d="M 2305.441406 2239.039062 L 2649.257812 1345.128906 L 1651.746094 961.464844 L 1307.929688 1855.375 Z M 2305.441406 2239.039062 " clip-rule="nonzero"/></clipPath><clipPath id="c521cb2b71"><path d="M 0 0 L 519 0 L 519 485 L 0 485 Z M 0 0 " clip-rule="nonzero"/></clipPath><clipPath id="5c1aefc61b"><path d="M -1.96875 -244.90625 L 670.898438 29.710938 L 417.820312 649.804688 L -255.046875 375.1875 Z M -1.96875 -244.90625 " clip-rule="nonzero"/></clipPath><clipPath id="cc63015fa6"><path d="M -1.96875 -244.90625 L 670.898438 29.710938 L 417.820312 649.804688 L -255.046875 375.1875 Z M -1.96875 -244.90625 " clip-rule="nonzero"/></clipPath><clipPath id="cf4fa16432"><path d="M 0 0 L 622 0 L 622 379 L 0 379 Z M 0 0 " clip-rule="nonzero"/></clipPath><clipPath id="bfac316022"><path d="M -1.96875 -244.90625 L 670.898438 29.710938 L 417.820312 649.804688 L -255.046875 375.1875 Z M -1.96875 -244.90625 " clip-rule="nonzero"/></clipPath><clipPath id="7d9faaa5c7"><path d="M -1.96875 -244.90625 L 670.898438 29.710938 L 417.820312 649.804688 L -255.046875 375.1875 Z M -1.96875 -244.90625 " clip-rule="nonzero"/></clipPath><clipPath id="d3744ef106"><path d="M 0 0 L 274 0 L 274 470 L 0 470 Z M 0 0 " clip-rule="nonzero"/></clipPath><clipPath id="f5922db91c"><path d="M 292.855469 611.355469 L -656.011719 481.210938 L -510.785156 -577.625 L 438.078125 -447.480469 Z M 292.855469 611.355469 " clip-rule="nonzero"/></clipPath><clipPath id="bc64cc52cc"><path d="M -656.316406 481.171875 L 292.550781 611.3125 L 437.777344 -447.523438 L -511.089844 -577.664062 Z M -656.316406 481.171875 " clip-rule="nonzero"/></clipPath><clipPath id="1342c7459e"><path d="M 1803 0 L 2400 0 L 2400 456 L 1803 456 Z M 1803 0 " clip-rule="nonzero"/></clipPath><clipPath id="89e44fb6e4"><path d="M 1640.851562 172.339844 L 2204.203125 -286.789062 L 2627.324219 232.378906 L 2063.96875 691.507812 Z M 1640.851562 172.339844 " clip-rule="nonzero"/></clipPath><clipPath id="187edd26ab"><path d="M 2204.070312 -286.675781 L 1640.714844 172.453125 L 2063.835938 691.621094 L 2627.1875 232.492188 Z M 2204.070312 -286.675781 " clip-rule="nonzero"/></clipPath><clipPath id="ee5fd8089d"><path d="M 1717 0 L 2400 0 L 2400 406 L 1717 406 Z M 1717 0 " clip-rule="nonzero"/></clipPath><clipPath id="9d9936a8e5"><path d="M 1640.851562 172.339844 L 2204.203125 -286.789062 L 2627.324219 232.378906 L 2063.96875 691.507812 Z M 1640.851562 172.339844 " clip-rule="nonzero"/></clipPath><clipPath id="b8a45527e4"><path d="M 2204.070312 -286.675781 L 1640.714844 172.453125 L 2063.835938 691.621094 L 2627.1875 232.492188 Z M 2204.070312 -286.675781 " clip-rule="nonzero"/></clipPath><clipPath id="221d903e45"><path d="M 1872 0 L 2400 0 L 2400 343 L 1872 343 Z M 1872 0 " clip-rule="nonzero"/></clipPath><clipPath id="e3a3b4c043"><path d="M 3070.773438 -330.402344 L 2726.957031 563.507812 L 1729.445312 179.84375 L 2073.261719 -714.066406 Z M 3070.773438 -330.402344 " clip-rule="nonzero"/></clipPath><clipPath id="435fd41d10"><path d="M 2726.847656 563.792969 L 3070.664062 -330.117188 L 2073.152344 -713.78125 L 1729.335938 180.128906 Z M 2726.847656 563.792969 " clip-rule="nonzero"/></clipPath><clipPath id="f751a35e70"><path d="M 0 838 L 275 838 L 275 1466 L 0 1466 Z M 0 838 " clip-rule="nonzero"/></clipPath><clipPath id="c566bdd49a"><path d="M -461.925781 1190.007812 L 51.960938 676.121094 L 525.546875 1149.703125 L 11.65625 1663.59375 Z M -461.925781 1190.007812 " clip-rule="nonzero"/></clipPath><clipPath id="061795804c"><path d="M -461.925781 1190.007812 L 51.960938 676.121094 L 525.546875 1149.703125 L 11.65625 1663.59375 Z M -461.925781 1190.007812 " clip-rule="nonzero"/></clipPath><clipPath id="9318c4690c"><path d="M 0 759 L 255 759 L 255 1461 L 0 1461 Z M 0 759 " clip-rule="nonzero"/></clipPath><clipPath id="cd670732e6"><path d="M -461.925781 1190.007812 L 51.960938 676.121094 L 525.546875 1149.703125 L 11.65625 1663.59375 Z M -461.925781 1190.007812 " clip-rule="nonzero"/></clipPath><clipPath id="0c274de3b7"><path d="M -461.925781 1190.007812 L 51.960938 676.121094 L 525.546875 1149.703125 L 11.65625 1663.59375 Z M -461.925781 1190.007812 " clip-rule="nonzero"/></clipPath><clipPath id="e679f81611"><path d="M 0 1263 L 757 1263 L 757 1500 L 0 1500 Z M 0 1263 " clip-rule="nonzero"/></clipPath><clipPath id="4a2271b78d"><path d="M -463.261719 1822.894531 L 17.460938 994.53125 L 941.832031 1530.96875 L 461.109375 2359.332031 Z M -463.261719 1822.894531 " clip-rule="nonzero"/></clipPath><clipPath id="7f15882901"><path d="M 17.617188 994.265625 L -463.105469 1822.632812 L 461.265625 2359.070312 L 941.988281 1530.703125 Z M 17.617188 994.265625 " clip-rule="nonzero"/></clipPath></defs><rect x="-240" width="2880" fill="#ffffff" y="-149.999993" height="1799.99992" fill-opacity="1"/><rect x="-240" width="2880" fill="#ffffff" y="-149.999993" height="1799.99992" fill-opacity="1"/><g clip-path="url(#cb8a056792)"><g clip-path="url(#5793fde542)"><g clip-path="url(#0064d58ba5)"><path fill="#578d63" d="M 2406.597656 951.527344 C 2373.300781 942.730469 2322.382812 942.691406 2297.390625 970.652344 C 2276.671875 993.835938 2292.164062 1015.679688 2271.71875 1044.101562 C 2242.105469 1085.265625 2191.34375 1064.800781 2161.207031 1099.757812 C 2131.804688 1133.851562 2165.019531 1170.835938 2153.886719 1236.304688 C 2135.105469 1346.789062 2018.953125 1368.472656 2026.546875 1434.429688 C 2032.863281 1489.300781 2119.589844 1529.355469 2183.914062 1537.472656 C 2278.238281 1549.375 2377.511719 1499.304688 2435.808594 1433.335938 C 2489.195312 1372.921875 2496.71875 1312.179688 2556.488281 1296.808594 C 2598.609375 1285.976562 2628.335938 1307.519531 2640.949219 1291.550781 C 2654.109375 1274.882812 2631.824219 1238.65625 2569.28125 1142.875 C 2468.523438 988.554688 2447.90625 962.4375 2406.597656 951.527344 Z M 2406.597656 951.527344 " fill-opacity="1" fill-rule="nonzero"/></g></g></g><g clip-path="url(#335d0ba7ae)"><g clip-path="url(#8eec978bb2)"><g clip-path="url(#b322ebae06)"><path stroke-linecap="butt" transform="matrix(0.613317, 0.538667, -0.538667, 0.613317, 2280.743065, 827.648981)" fill="none" stroke-linejoin="miter" d="M 41.029914 307.401474 C 12.631049 262.978432 -15.329399 184.108653 15.389342 143.282542 C 43.111436 106.419472 90.589694 137.83038 184.639127 102.250915 C 267.262193 71.000381 268.427673 32.450314 317.993007 30.450424 C 395.25046 27.318686 409.519436 120.302522 507.759565 158.668418 C 635.422793 208.540572 740.179899 101.859733 784.720533 148.410478 C 827.260317 192.871632 787.492981 348.530386 687.270722 415.109455 C 575.748203 489.199497 417.621313 434.250594 389.80093 502.300062 C 379.758627 526.870723 397.668695 540.642029 384.669819 563.847853 C 350.082436 625.599358 171.621476 620.240162 138.47792 553.590965 C 118.7474 513.910606 166.130383 483.841953 148.740074 425.368359 C 132.399811 370.418123 83.838353 374.351444 41.029914 307.401474 Z M 41.029914 307.401474 " stroke="#e0a43b" stroke-width="4" stroke-opacity="1" stroke-miterlimit="10"/></g></g></g><g clip-path="url(#4ae162d1e9)"><g clip-path="url(#f1b68c8186)"><g clip-path="url(#ff17f317f2)"><path fill="#a8c89a" d="M 2349.425781 1334.757812 C 2366.691406 1353.183594 2381.203125 1375.78125 2392.175781 1403.300781 C 2463.007812 1580.875 2433.667969 1905.234375 2220.050781 1973.261719 C 2129.261719 2002.175781 2021.699219 2007.605469 1927.101562 2015.769531 C 1785.332031 2028.003906 1673.015625 1995.8125 1584.820312 1876.796875 C 1514.855469 1782.382812 1445.015625 1658.929688 1451.921875 1537.300781 C 1455.671875 1471.296875 1487.066406 1404.351562 1543.734375 1370.296875 C 1590.40625 1342.25 1647.253906 1339.253906 1701.289062 1332.5 C 1885.648438 1309.472656 2195.289062 1170.238281 2349.425781 1334.757812 " fill-opacity="1" fill-rule="nonzero"/></g></g></g><g clip-path="url(#c521cb2b71)"><g clip-path="url(#5c1aefc61b)"><g clip-path="url(#cc63015fa6)"><path fill="#578d63" d="M 185.191406 -147.90625 C 150.851562 -145.332031 102.71875 -128.710938 88.246094 -94.117188 C 76.246094 -65.429688 98.035156 -49.855469 88.007812 -16.308594 C 73.488281 32.277344 18.824219 29.539062 1.777344 72.429688 C -14.855469 114.265625 28.625 138.351562 39.519531 203.859375 C 57.90625 314.410156 -44.765625 372.894531 -16.015625 432.738281 C 7.898438 482.523438 102.953125 492.011719 166.394531 478.644531 C 259.421875 459.042969 336.859375 379.257812 370.375 297.851562 C 401.070312 223.296875 388.3125 163.4375 439.769531 129.359375 C 476.027344 105.347656 511.164062 115.988281 517.863281 96.765625 C 524.847656 76.710938 491.941406 49.765625 401.511719 -20.292969 C 255.820312 -133.171875 227.792969 -151.105469 185.191406 -147.90625 Z M 185.191406 -147.90625 " fill-opacity="1" fill-rule="nonzero"/></g></g></g><g clip-path="url(#cf4fa16432)"><g clip-path="url(#bfac316022)"><g clip-path="url(#7d9faaa5c7)"><path stroke-linecap="butt" transform="matrix(0.755764, 0.308449, -0.308449, 0.755764, 25.742814, -223.809874)" fill="none" stroke-linejoin="miter" d="M 41.02894 307.400662 C 12.629247 262.979187 -15.331337 184.110633 15.390064 143.279396 C 43.110688 106.417392 90.592073 137.830791 184.641465 102.247939 C 267.25936 70.999816 268.427824 32.45097 317.988857 30.448209 C 395.250099 27.322361 409.520127 120.301456 507.75907 158.671973 C 635.422416 208.540379 740.180854 101.860138 784.721709 148.408216 C 827.258299 192.869535 787.487735 348.52939 687.27 415.108746 C 575.749611 489.200626 417.620763 434.249649 389.799929 502.29858 C 379.758389 526.869672 397.67025 540.642081 384.669775 563.852002 C 350.079607 625.597953 171.61847 620.242336 138.482456 553.590649 C 118.75267 513.910847 166.130548 483.839387 148.738123 425.368778 C 132.401148 370.421393 83.839102 374.352649 41.02894 307.400662 Z M 41.02894 307.400662 " stroke="#e0a43b" stroke-width="4" stroke-opacity="1" stroke-miterlimit="10"/></g></g></g><g clip-path="url(#d3744ef106)"><g clip-path="url(#f5922db91c)"><g clip-path="url(#bc64cc52cc)"><path fill="#a8c89a" d="M 234.035156 317.066406 C 220.050781 338.085938 201.371094 357.386719 177.09375 374.367188 C 20.441406 483.953125 -302.027344 529.613281 -417.132812 337.230469 C -466.054688 255.464844 -495.953125 151.996094 -525.542969 61.78125 C -569.894531 -73.425781 -564.257812 -190.132812 -468.582031 -303.21875 C -392.679688 -392.933594 -288.488281 -489.171875 -168.503906 -510.277344 C -103.394531 -521.730469 -31.042969 -506.488281 15.078125 -459.113281 C 53.058594 -420.097656 68.984375 -365.445312 87.921875 -314.390625 C 152.523438 -140.195312 358.921875 129.371094 234.035156 317.066406 " fill-opacity="1" fill-rule="nonzero"/></g></g></g><g clip-path="url(#1342c7459e)"><g clip-path="url(#89e44fb6e4)"><g clip-path="url(#187edd26ab)"><path fill="#578d63" d="M 2053.386719 -139.253906 C 2086.984375 -146.816406 2137.871094 -144.976562 2161.816406 -116.113281 C 2181.667969 -92.183594 2165.378906 -70.925781 2184.761719 -41.769531 C 2212.835938 0.460938 2264.320312 -18.121094 2293.148438 17.921875 C 2321.273438 53.078125 2286.71875 88.8125 2295.429688 154.644531 C 2310.125 265.746094 2425.398438 291.699219 2415.378906 357.332031 C 2407.042969 411.929688 2318.902344 448.765625 2254.320312 454.503906 C 2159.625 462.917969 2062.261719 409.226562 2006.4375 341.152344 C 1955.3125 278.808594 1950.035156 217.832031 1890.871094 200.269531 C 1849.179688 187.890625 1818.679688 208.324219 1806.660156 191.898438 C 1794.125 174.757812 1817.730469 139.378906 1883.761719 45.96875 C 1990.140625 -104.535156 2011.707031 -129.871094 2053.386719 -139.253906 Z M 2053.386719 -139.253906 " fill-opacity="1" fill-rule="nonzero"/></g></g></g><g clip-path="url(#ee5fd8089d)"><g clip-path="url(#9d9936a8e5)"><g clip-path="url(#b8a45527e4)"><path stroke-linecap="butt" transform="matrix(-0.632757, 0.515693, 0.515693, 0.632757, 2183.723313, -258.406961)" fill="none" stroke-linejoin="miter" d="M 41.030308 307.400144 C 12.630103 262.978485 -15.330132 184.108852 15.389039 143.281428 C 43.112071 106.420662 90.590023 137.831342 184.640894 102.252001 C 267.260929 71.000625 268.431979 32.450347 317.989336 30.447503 C 395.249514 27.319538 409.520138 120.296988 507.760862 158.667735 C 635.420654 208.540548 740.178242 101.859479 784.721847 148.409662 C 827.260694 192.871161 787.489539 348.529734 687.268594 415.109051 C 575.748097 489.199748 417.619911 434.248451 389.802534 502.29994 C 379.760926 526.867932 397.669934 540.638888 384.671324 563.851055 C 350.081493 625.600028 171.619385 620.242147 138.478542 553.589202 C 118.751421 513.908712 166.128796 483.840424 148.738626 425.371142 C 132.40132 370.420708 83.841284 374.351722 41.030308 307.400144 Z M 41.030308 307.400144 " stroke="#e0a43b" stroke-width="4" stroke-opacity="1" stroke-miterlimit="10"/></g></g></g><g clip-path="url(#221d903e45)"><g clip-path="url(#e3a3b4c043)"><g clip-path="url(#435fd41d10)"><path fill="#a8c89a" d="M 2770.828125 -340.484375 C 2788.09375 -322.0625 2802.605469 -299.460938 2813.582031 -271.941406 C 2884.414062 -94.371094 2855.074219 229.992188 2641.457031 298.019531 C 2550.664062 326.933594 2443.101562 332.363281 2348.507812 340.523438 C 2206.738281 352.757812 2094.421875 320.566406 2006.226562 201.550781 C 1936.257812 107.136719 1866.417969 -16.316406 1873.328125 -137.941406 C 1877.078125 -203.949219 1908.46875 -270.894531 1965.140625 -304.949219 C 2011.8125 -332.992188 2068.660156 -335.988281 2122.695312 -342.742188 C 2307.050781 -365.769531 2616.695312 -505.007812 2770.828125 -340.484375 " fill-opacity="1" fill-rule="nonzero"/></g></g></g><g clip-path="url(#f751a35e70)"><g clip-path="url(#c566bdd49a)"><g clip-path="url(#061795804c)"><path fill="#578d63" d="M -299.980469 1055.054688 C -310.914062 1087.710938 -314.246094 1138.523438 -287.960938 1165.269531 C -266.164062 1187.445312 -243.363281 1173.398438 -216.324219 1195.636719 C -177.160156 1227.851562 -200.867188 1277.183594 -167.929688 1309.519531 C -135.808594 1341.0625 -96.753906 1310.308594 -32.144531 1325.652344 C 76.894531 1351.539062 91.023438 1468.847656 157.332031 1465.535156 C 212.496094 1462.78125 258.078125 1378.828125 270.339844 1315.164062 C 288.3125 1221.808594 244.769531 1119.503906 182.707031 1057.0625 C 125.871094 999.878906 65.742188 988.445312 54.269531 927.804688 C 46.183594 885.074219 69.605469 856.804688 54.480469 843.179688 C 38.703125 828.972656 1.109375 848.867188 -98.515625 905.085938 C -259.03125 995.65625 -286.425781 1014.539062 -299.980469 1055.054688 Z M -299.980469 1055.054688 " fill-opacity="1" fill-rule="nonzero"/></g></g></g><g clip-path="url(#9318c4690c)"><g clip-path="url(#cd670732e6)"><g clip-path="url(#0c274de3b7)"><path stroke-linecap="butt" transform="matrix(0.5772, -0.5772, 0.5772, 0.5772, -431.739869, 1172.635895)" fill="none" stroke-linejoin="miter" d="M 41.029113 307.402472 C 12.632349 262.98008 -15.331289 184.110708 15.390138 143.278516 C 43.110144 106.422278 90.591482 137.830615 184.637152 102.250065 C 267.259147 71.000767 268.429938 32.452633 317.988923 30.44943 C 395.250995 27.319424 409.520437 120.302584 507.762006 158.671376 C 635.418859 208.54167 740.177607 101.860929 784.718432 148.411725 C 827.259437 192.867956 787.489756 348.532437 687.26867 415.111885 C 575.74911 489.199962 417.62123 434.2506 389.79971 502.298612 C 379.760006 526.86831 397.667021 540.640334 384.669885 563.849748 C 350.077402 625.600528 171.619712 620.237221 138.478875 553.590098 C 118.751381 513.911779 166.127822 483.840039 148.738526 425.371535 C 132.401589 370.418789 83.837438 374.350753 41.029113 307.402472 Z M 41.029113 307.402472 " stroke="#e0a43b" stroke-width="4" stroke-opacity="1" stroke-miterlimit="10"/></g></g></g><g clip-path="url(#e679f81611)"><g clip-path="url(#4a2271b78d)"><g clip-path="url(#7f15882901)"><path fill="#a8c89a" d="M -168.679688 1880.238281 C -182.816406 1859.320312 -193.574219 1834.710938 -200.0625 1805.804688 C -241.953125 1619.269531 -161.738281 1303.617188 59.945312 1270.195312 C 154.164062 1255.988281 261.234375 1267.617188 355.929688 1274.503906 C 497.851562 1284.820312 603.671875 1334.351562 671.957031 1465.804688 C 726.128906 1570.089844 775.589844 1703.023438 749.550781 1822.03125 C 735.421875 1886.617188 693.847656 1947.761719 632.507812 1972.433594 C 581.992188 1992.753906 525.382812 1986.734375 470.960938 1984.867188 C 285.28125 1978.476562 -42.46875 2067.046875 -168.679688 1880.238281 " fill-opacity="1" fill-rule="nonzero"/></g></g></g></svg>