<?xml version="1.0" encoding="UTF-8"?>
<svg id="Calque_1" xmlns="http://www.w3.org/2000/svg" version="1.1" viewBox="0 0 279.27 279.27">
  <!-- Generator: Adobe Illustrator 29.3.1, SVG Export Plug-In . SVG Version: 2.1.0 Build 151)  -->
  <defs>
    <style>
      .st0, .st1 {
        stroke: #fff;
        stroke-miterlimit: 10;
      }

      .st1 {
        fill: #fff;
      }
    </style>
  </defs>
  <path class="st1" d="M278.95-.59v279.27H-.33V-.59h279.27ZM172.14,88.23c11.64-21.11,10.16-49.97-12.08-63.25-.88-.53-2.83-1.17-3.44-1.74-.55-.51-1.24-2.31-1.81-3.1-5.03-6.96-12.39-10.5-20.89-7.32-.94.35-3.65,2.06-4.16,2.11-.64.06-1.65-.48-2.45-.54-6.34-.48-14.3,2.28-19.89,5.14-7.16-9.57-15.82-.28-19.79,6.93-4.44,8.06-6.61,18.27-6.34,27.43-5.43,2.83-10.67,7.01-13.09,12.81-5.19,12.44,3.27,23.96,14.02,29.56,1.51.79,4.49,1.67,5.59,2.58.94.77,1.96,2.86,2.86,3.95,3.53,4.24,7.71,7.42,12.53,10.1l-5.21,8.01c-3.03-1.54-5.03,1.81-7.19,3.56-1.43,1.16-12.2,10.02-12.94,9.69l-3.79-4.34c2.81-2.76,4.91-6.57,5.63-10.46.95-5.11,1.74-11.17-3.28-14.28-2.65-1.64-4.39-1.06-7.21-1.64-.5-4.42-3.2-11.3-8.17-12.13-3.07-.52-9.37.35-12.33,1.44-5.96,2.19-7.12,3.71-11.27,7.94-2.97,3.02-6.35,5.61-8.09,9.75-.24.57-.16,1.26-.41,1.77-.43.91-1.83,1.82-2.51,3.48-4.35,10.55,3.85,25.37,14.03,29.43.95.38,3.62.91,4.15,1.3.25.19,1.83,2.68,2.73,3.53,6.84,6.46,18.77,13.83,28.44,12.36,3.72-.57,7.13-2.34,10.25-4.33-.33,9.7,1.68,19.2,6.13,27.8.33.64,2.33,3.69,2.33,3.95,0,.49-2,1.52-2.61,2.03-4.66,3.93-8.38,12.72-9.75,18.58-.99,4.25-1.59,9.04-.46,13.3-6.5.35-13.35,2.36-18.5,6.43-6.58,5.2-10.24,13.92-4.38,21.22,3,3.73,6.01,5.22,10.62,6.27,11.19,2.56,29.15-2.55,39.77-6.82,5.23-2.1,12.84-5.11,12.55-11.72-.41-9.57-7.54-14.37-9.74-22.95-.18-.69-.57-1.98-.53-2.61.1-1.65,1.89-4.05,1.96-5.9,2.19.86,4.28,2.1,6.48,3.05,11.57,4.99,24.07,6.96,36.68,6.5.14,2.12,1.34,4.28,1.39,6.39.16,6.23-1.69,8.84-4.43,13.84-1.4,2.55-1.81,4.09-2.14,6.85-.25,2.1,2.2,5.21,3.57,6.82,11.82,13.86,33.95,16.05,50.54,11.05,2.59-.78,10.2-3.5,11.53-5.64,1.07-1.72,1.79-8.41,1.68-10.58-.76-14.37-14.78-21.35-27.79-19.75l-1.9-14.71c8.6,1.57,17.5,2.25,25.21-2.45,6.16-3.75,12.41-10.02,14.11-17.22.31-1.33.5-3.14-.76-4.04-1.96-1.4-3.07.35-4.7,1.03-2.37.99-6.78,2.16-9.33,2.66-1.63.32-3.24.51-4.91.4l5.51-7.43c23.42-35.15,7.76-80.06-31.68-93.78-3.24-1.13-6.91-2.36-10.34-2.33Z"/>
  <path class="st0" d="M172.14,88.23c3.43-.03,7.1,1.2,10.34,2.33,39.44,13.72,55.1,58.63,31.68,93.78l-5.51,7.43c1.67.11,3.28-.08,4.91-.4,2.55-.5,6.96-1.67,9.33-2.66,1.62-.68,2.74-2.43,4.7-1.03,1.26.9,1.08,2.72.76,4.04-1.7,7.2-7.95,13.47-14.11,17.22-7.71,4.7-16.61,4.02-25.21,2.45l1.9,14.71c13.01-1.6,27.03,5.39,27.79,19.75.12,2.17-.61,8.85-1.68,10.58-1.33,2.14-8.94,4.86-11.53,5.64-16.59,5-38.72,2.81-50.54-11.05-1.37-1.6-3.82-4.71-3.57-6.82.33-2.76.74-4.3,2.14-6.85,2.74-5,4.59-7.61,4.43-13.84-.05-2.11-1.26-4.27-1.39-6.39-12.61.45-25.11-1.52-36.68-6.5-2.2-.95-4.29-2.19-6.48-3.05-.08,1.85-1.86,4.25-1.96,5.9-.04.63.36,1.92.53,2.61,2.2,8.58,9.33,13.39,9.74,22.95.29,6.61-7.32,9.61-12.55,11.72-10.62,4.27-28.58,9.38-39.77,6.82-4.61-1.05-7.62-2.54-10.62-6.27-5.87-7.3-2.21-16.02,4.38-21.22,5.15-4.07,12-6.08,18.5-6.43-1.13-4.25-.53-9.05.46-13.3,1.37-5.86,5.09-14.65,9.75-18.58.6-.51,2.61-1.54,2.61-2.03,0-.26-2-3.31-2.33-3.95-4.45-8.59-6.46-18.1-6.13-27.8-3.12,1.99-6.53,3.76-10.25,4.33-9.68,1.47-21.61-5.9-28.44-12.36-.9-.85-2.48-3.34-2.73-3.53-.53-.4-3.19-.92-4.15-1.3-10.18-4.06-18.38-18.88-14.03-29.43.68-1.66,2.08-2.57,2.51-3.48.25-.52.17-1.2.41-1.77,1.74-4.14,5.13-6.74,8.09-9.75,4.16-4.22,5.31-5.75,11.27-7.94,2.96-1.09,9.26-1.95,12.33-1.44,4.96.83,7.66,7.72,8.17,12.13,2.82.59,4.56,0,7.21,1.64,5.02,3.11,4.23,9.17,3.28,14.28-.72,3.89-2.82,7.71-5.63,10.46l3.79,4.34c.74.33,11.51-8.54,12.94-9.69,2.16-1.74,4.17-5.1,7.19-3.56l5.21-8.01c-4.82-2.67-8.99-5.85-12.53-10.1-.9-1.08-1.92-3.17-2.86-3.95-1.11-.91-4.09-1.79-5.59-2.58-10.75-5.6-19.21-17.11-14.02-29.56,2.42-5.8,7.65-9.98,13.09-12.81-.27-9.16,1.9-19.37,6.34-27.43,3.97-7.22,12.63-16.51,19.79-6.93,5.6-2.87,13.55-5.62,19.89-5.14.79.06,1.81.6,2.45.54.51-.05,3.22-1.76,4.16-2.11,8.5-3.18,15.86.36,20.89,7.32.57.79,1.26,2.58,1.81,3.1.61.57,2.56,1.21,3.44,1.74,22.24,13.29,23.71,42.15,12.08,63.25ZM158.72,36.66c-.28.28-1.19.61-1.63.57-2.44-.2-1.86-3.71-2.19-5.46-3.5-18.56-21.35-21.8-29.95-4.75-.86,1.71-.97,4.94-3.5,4.15-2.86-.89.17-6.09,1.05-7.69.97-1.75,2.18-3.35,3.32-4.99-4.13.41-8.25,1.25-12.13,2.72-1.58.6-2.94,1.46-4.48,1.93-.46.51,2.79,7.6-1.01,7.81-2.69.15-2.56-5.05-3.36-7.15-3.12-8.23-9.09-2.37-12.11,2.34-1.88,2.95-3.5,6.44-4.52,9.79,3.41-3.8,9.05-9.69,14.03-4.63,1.85,1.88,2.85,6.8,3.13,9.4.59,5.44-.48,10.59-1.36,15.93,3.99,1.01,8.16,1.78,11.72,3.95,1.14.69,2.54,1.56,2.06,3.15-.97,3.2-5.78-.51-7.8-1.22-3.37-1.19-9.76-2.97-13.13-2.26s-8.58,3.23-10.67,5.95c-1.2,1.56-1.51,4.23-3.83,3.79-2.95-.56.12-5.44,1.14-6.67-.94-1.21-1.36-2.72-1.56-4.22-.4-.34-3.92,2.25-4.48,2.73-12.69,10.78-4.21,25.95,8.75,31.29,1.47.6,2.4.59,3.66.98.92.28,4.14,5.66,5.29,6.97,10.59,11.94,33.24,16.71,44.69,3.54,1.47-1.69,2.88-5.63,5.58-4.49,3.18,1.34-1.14,6.47-2.44,7.9-6,6.59-16.05,9.84-24.8,8.85-.16,2.56,3.09,3.38,5.11,3.74,8.17,1.45,18.72-2.31,24.99-7.55l.62-3.22c-1.4-.44-1.72-2.01-1.05-3.2.35-.62,5.74-3.66,6.92-4.53,18.81-13.9,27.65-44.71,13.21-64.61-1.58-2.18-6.66-7.5-9.08-8.36-.67-.24-.24.28-.21.48.25,1.68,1.26,5.82,0,7.07ZM101.3,43.82c.15-2.16-.71-9.8-3.2-10.3-2.28-.46-7.56,5.97-8.56,7.94-1.84,3.62-1.65,6.94-2.8,10.28-.24.69-1.03,1.04-1.18,1.54-.54,1.79.61,5.31,1.04,7.17l5.87-2.99c.32-.46-.44-2.78-.45-3.69-.04-3.28,1.99-8.66,5.11-10.18,1.68-.82,2.57-.53,4.18.23ZM171.05,90.69l-.56.17c-3.41,5.79-8.3,10.46-13.33,14.81,8.97.84,17.53,4.21,25.88,7.36-1.01-2.57-1.27-5.39-2.24-7.97-.69-1.82-1.88-3.67-2.71-5.47-.72-1.56-1.72-5.11-2.66-6.26-.74-.91-4.37-.4-4.38-2.64ZM211.38,118.2c-7.02-11.12-18.35-19.31-30.79-23.43.96,3.04,2.92,5.63,4.14,8.53,1.01,2.41,2.66,7.98,2.59,10.46-.01.53-.29.73-.46,1.16,6.86,3.07,13.6,7.26,18.67,12.81.72.18,1.91-2.65,2.17-3.27.84-2.05,1.02-6.5,3.68-6.27ZM64.75,104.54c.62-2.9-1.95-8.97-5.27-8.97-2.72,0-6.64.51-9.2,1.45-1.05.39-2.26,1.07-3.19,1.71,5.54.43,10.26,3.5,12.96,8.3l4.7-2.49ZM35.91,109.22h4.77c.42,0,4.19,1.01,4.76,1.23,3.49,1.35,6.61,5.36,8.72,8.31-1.03-3.45.61-6.07,2.42-8.81-2.4-4.33-7.01-8.07-12.23-6.58-.97.28-1.84.96-2.65,1.17-.73.18-1.27-.06-2.14.31-.74.31-4.08,4.01-3.66,4.38ZM61.05,133.81c.29-.31,2.2-.9,2.9-1.32,6.95-4.17,11.45-9.9,11.75-18.22.1-2.74.12-5.28-3.17-5.85-2.45-.42-4.43-.38-6.72.59-2.84,1.21-7.4,4.63-7.3,7.98.1,3.55.65,6.49,4.63,4.06,2.61-1.59,3.68-3.52,5.47-5.7,1.54-1.88,4.15-.86,4.08,1.33-.11,3.01-7.18,8.98-10.06,9.58-.91.19-3.38-.08-3.71.38.4,2.17,1.28,6.78-2.38,5.94-1.94-.45-1.01-3.12-1.42-3.21l-1.52,1.75c-4.86,3.74-11.19,3.44-15.91-.39-3.38-2.75-4.55-8.79,1.17-7.44,1.67.4,5.04,1.62,4.68,3.75-.12.74-1.41,1.24-.82,1.65,5.8,1.25,10.23,0,7.56-6.75-2.13-5.38-6.92-8.2-12.61-8.38-2.89-.09-6.41,1.85-7.3,4.69-2.38,7.59,3.57,18.67,10.52,22.06,3.91,1.91,6.57,1.95,10.61.43,1.89-.71,4.56-2.83,6.33-2.67,1.67.15,2.12,1.54,1.65,3.02-.61,1.92-7.89,4.6-9.96,5.02,4.52,3.89,9.82,7.67,15.35,9.99,8.41,3.54,14.81,1.56,21.44-4.26,1.01-3.6,1.58-7.35,2.64-10.98,1.35-4.62,3.28-9.03,5.25-13.41l-14.43,10.37c.35,1.84,2.55,6.88-.44,7.33s-2.66-3.36-3.45-5.51c-.98-2.67-2.86-4.93-5.12-6.62h-.53c-1.47,1.34-7.66,6.1-9.29,3.51-.37-.58-.39-2.24.09-2.75ZM188.02,186.24c-.29-.25-.61-1.01-.65-1.42-.24-2.75,2.16-2.44,3.94-3.17,4.1-1.69,6.49-6.75,6.46-11,0-.79-.16-3.3-1.11-3-1.07.35-1.56,1.19-2.99.25-1.77-1.16-.71-3.01.55-4.05,7.06-5.83,14.99-10.05,14.15-21.01-1.35-17.75-32.38-28.02-46.48-32.26-1.81-.55-3.69-.64-5.57-.56,3.37,2.88,3.08,7.23,3.94,11.18.53,2.46,1.33,4.86,1.78,7.35.94.02.35-.96,1.43-1.43.61-.26,1.22-.32,1.85-.08,4.63,3.03,9.79,5.25,14.51,8.1,1.33.8,5.12,3.91,5.93,4.18.63.22,1.68-1.33,3.46-.49.51.24,1.11,1.29,1.12,1.84.05,2.21-5.04,6.72-6.5,8.46-1.83,2.17-4.89,7.43-6.68,8.85-.98.78-1.75.65-2.79.08-.75-.14-.65-2.23-1.29-1.99-.55.2-3.16,2.21-3.81,2.73-5.02,4-10.7,11.26-7.64,17.97.11.25,1.12,2.08,1.5,1.63-.2-2.32,1.94-9.16,5.29-7.05,1.77,1.12-.1,3.24-.59,4.53-1.62,4.28.91,10.43,5.65,11.51-1.11-2.47-1.55-12.47,3.2-10.42,2.06.89.46,4.54.62,6.47.26,3.14,2.44,6.24,5.31,7.5,7.12,3.13,15.68-2.19,16.48-9.81-.89.87-1.62,1.92-2.59,2.72-1.7,1.39-6.56,4.01-8.5,2.38ZM162.06,138.91c-3.61-4.96-5.03-11.16-6.19-17.1-.53-2.7-.14-6.13-2.12-8.23-6.88,8.77-19.21,12.25-30.06,11.76-3.93,6.11-6.41,12.9-7.4,20.12.42,0,.79-.29,1.22-.28,2.77.06,6.28.97,9.26,1.1,8.42.39,21-.59,28.9-3.55,2.56-.96,4.22-2.25,6.4-3.82ZM113.54,116.33l-5.98-1.54c-5.12,7.03-9.77,14.56-12.54,22.86,4.43,3.46,10,4.88,15.27,6.59.47.15.91.57,1.24.67.56.17.34-.16.4-.41.45-1.84.62-3.78,1.12-5.7,1.31-5.03,3.18-10.24,6.24-14.46-3.38-1.41-6.14-4.04-5.74-8.01ZM211.92,165.62c2.07-1.07,3.71-3.51,5.47-4.74.63-.44,1.9-.79,2.14-1.13.41-.59,1.06-6.49,1.12-7.6.57-10.51-1.87-22.07-7.51-30.93-.76,2.85-2.13,5.48-3.27,8.17-.32.75.08,1.81-1.22,1.91,4.76,6.79,6.1,15.71,1.64,23.02l1.24.39c1.07,3.65.56,7.19.39,10.92ZM171.6,142.45l-.95-7.36-7.77-4.63c-.45.47,3.04,6.11,3.59,6.9.38.53,4.49,5.81,5.12,5.09ZM175.14,137.83l2.59,11.98,5.85-6.4c-.82-.66-7.93-6.12-8.44-5.58ZM111.38,147.91c-1.21,1.05-2.85.42-4.23,0-2.5-.75-5.15-2.14-7.67-2.96l-6.08-3.32c-1.89,7.31-3.15,14.61-2.74,22.22.03.6.44,4.54.59,4.72.07.09,1.03.17,1.4.37.74.39,1.54,1.34,2.47,1.89,4.9,2.95,11.49,4.21,17.07,5.13-1.57-9.24-1.83-18.74-.82-28.06ZM173.21,150.86l-.93-4.32c-3,1.83-6.06-2.44-7.9-4.36-.1-.04-.32.61-.53.82-7.47,7.77-36.23,8.96-46.25,6.72-.72-.16-1.25-.26-1.85-.74-1.08,9.15-.57,18.46,1.11,27.5,9.16,1.93,18.83,2.26,28.1.76,4.06-.66,7.75-1.8,11.34-3.77-.22-10.24,8.53-18.2,16.91-22.61ZM202.11,171.34c.23.23,3.62-1.49,4.06-1.79,1.73-1.2,1.37-6.92,1.96-8.97.05-.65-.17-1.17-.74-1.48l-6.64,5.84c1.65,1.73,1.36,4.19,1.36,6.4ZM207.02,186.32c4.75-5.73,8.49-12.46,10.62-19.62l-6.65,4.92c-.77,2.68-.84,5.49-1.65,8.16-.67,2.21-1.95,4.22-2.32,6.54ZM204.02,181.42c.8-2.33,1.63-4.61,1.91-7.08l-4.63,2.04,2.02,1.24.7,3.79ZM128,208.66c-8.35-7.12-12.28-17.84-14.97-28.21-5.49-.48-10.98-1.74-16.09-3.8-1.49-.6-2.91-1.36-4.36-2.04,4.73,16.79,18.98,29.24,35.42,34.05ZM157.42,178.15c-9.29,4.09-20.27,4.89-30.36,4.35-3.05-.16-6.13-.8-9.13-1.22,1.86,6.74,4.32,13.85,8.61,19.46,2.37,3.09,6.63,6.83,10.59,7.12,3.22.23,7.65.17,10.71-.76,1.92-.59,3.31-1.8,5.23-1.99.28-4.04,2.6-8.51,5.08-11.68,2-2.57,4.75-4.2,7.73-5.48.19-.27-2.14-4.14-2.16-5.05-3.17,1.5-5.29-2.26-6.29-4.74ZM186.85,204.03c0-.32.2-.59.44-.78,2.14-1.66,7.43-4.05,8.98-6,.51-.64.31-1.22.59-1.86s1.21-1.21,1.66-1.89c.55-.84,1.09-2.12,1.4-3.09-4.45,4.92-10.89,7.26-17.43,5.45l1.95,3.08,2.4,5.09ZM177.05,192.59c-.84,0-1.68.06-2.52-.07-1.13-.17-2.97-1.18-3.66-1.23-.31-.02-3.5.84-3.99,1.08-3.83,1.83-6.12,4.62-7.92,8.43-2.69,5.69.03,8.22,1.6,13.59,1.95,6.63,2.75,11.93.42,18.68-1.01,2.93-2.65,4.59-4.04,7.13-1.64,2.99-.17,3.11.91,5.8.21.51.04,1.11.27,1.64.52,1.19,5.33,5.04,6.63,5.9,6.53,4.31,16.11,6.65,23.88,6.64.99,0,2.28-.54,3.41-.27-.38-1.99,1.13-2.25,2.05-3.26,3.25-3.57,2.16-8.94-.82-12.28-.98-1.11-3.04-1.76-1.79-3.95,1.69-2.97,5.22.73,6.39,2.35,3.46,4.79,3.84,11.57.16,16.32.26.19,3.24-.53,3.82-.68,1.07-.26,5.59-1.51,5.93-2.24,1.71-3.63.22-9.7-1.9-12.96-1-1.55-1.22-1.1-2.38-1.98-2.69-2.04.21-5.67,3.51-3.51,3.88,2.54,6.18,10.39,6.01,14.84.39.06.37-.47.46-.76,2.03-6.54-.47-13.9-6.1-17.71-7.34-4.98-17.5-4.17-25.42-1-1.43.57-4.78,2.69-5.88,2.84-2.2.31-3.53-1.63-2.35-3.46,1.38-2.15,10.4-5.13,13.14-5.52-1.6-8.47-1.93-17.27-5.76-25.16-1.12-2.31-2.96-4.56-3.92-6.99-.33-.84-.24-1.28-.13-2.17ZM109.71,204.89c-4.73-2.89-8.68-6.86-12.22-11.09-6.01,2.75-9.54,11.57-10.94,17.68-.92,4-1.51,8.22-.1,12.16,1.99.64,4.02.93,6,1.63s6.93,2.6,4.62,5.45c-1.59,1.97-4.95-.8-7.01-1.43-8.04-2.48-18.84-.41-25.13,5.26-3.88,3.49-6.32,8.98-2.74,13.62.24.31,2.6,2.74,2.87,2.44-.87-5.1.91-11.53,4.35-15.4,1.29-1.45,5.07-4.52,6.6-1.96,1.43,2.39-.92,2.94-2.1,4.01-4,3.61-5.76,10.1-3.35,15.07l.41.41c3.24.36,6.78.86,10.03.59,2-.16,3.74-1.05,5.47-1.34,1.94-.33,4.21-.22,6.18-.63,2.47-.52,5.66-1.92,8.17-2.73,4.34-1.41,12.01-3.56,15.33-6.74,1.66-1.59.8-5.22.15-7.23-2.27-7.03-7.89-11-8.96-19.66-.47-3.83,1.97-6.41,2.37-10.12ZM222.55,193.68c-5.76.98-11.41,3.54-17.26,1.41-3.05,3.07-6.38,5.82-9.9,8.34-1.18.84-3.4,1.94-4.31,2.77-.27.25-.5.38-.41.82,5.93.96,13.14,1.74,18.79-.68,2.84-1.21,6.92-4.48,9.14-6.66,1.66-1.63,3.59-3.65,3.94-6ZM154.98,212.75l-1.09-3.54c-2.67,1.69-5.81,2.73-8.99,2.73.12.41,1.41.51,1.77.54,2.72.2,5.58.2,8.31.27Z"/>
  <path class="st1" d="M158.72,36.66c1.26-1.25.25-5.39,0-7.07-.03-.2-.47-.72.21-.48,2.42.86,7.5,6.18,9.08,8.36,14.44,19.9,5.6,50.71-13.21,64.61-1.18.87-6.56,3.91-6.92,4.53-.68,1.19-.35,2.76,1.05,3.2l-.62,3.22c-6.27,5.24-16.83,9-24.99,7.55-2.03-.36-5.27-1.17-5.11-3.74,8.75,1,18.8-2.26,24.8-8.85,1.3-1.43,5.62-6.56,2.44-7.9-2.7-1.14-4.11,2.8-5.58,4.49-11.45,13.17-34.1,8.4-44.69-3.54-1.16-1.3-4.38-6.68-5.29-6.97-1.26-.39-2.19-.37-3.66-.98-12.96-5.34-21.44-20.51-8.75-31.29.57-.48,4.08-3.08,4.48-2.73.2,1.5.62,3.01,1.56,4.22-1.02,1.23-4.09,6.11-1.14,6.67,2.32.44,2.63-2.23,3.83-3.79,2.1-2.72,7.35-5.25,10.67-5.95s9.77,1.07,13.13,2.26c2.02.71,6.83,4.42,7.8,1.22.48-1.59-.92-2.45-2.06-3.15-3.56-2.17-7.73-2.94-11.72-3.95.89-5.34,1.95-10.49,1.36-15.93-.28-2.6-1.28-7.52-3.13-9.4-4.98-5.06-10.62.82-14.03,4.63,1.01-3.35,2.63-6.84,4.52-9.79,3.01-4.72,8.98-10.57,12.11-2.34.79,2.09.66,7.29,3.36,7.15,3.8-.21.54-7.29,1.01-7.81,1.54-.46,2.9-1.33,4.48-1.93,3.88-1.46,8-2.31,12.13-2.72-1.14,1.64-2.34,3.24-3.32,4.99-.89,1.6-3.91,6.81-1.05,7.69,2.53.79,2.64-2.44,3.5-4.15,8.59-17.04,26.44-13.81,29.95,4.75.33,1.75-.25,5.26,2.19,5.46.43.03,1.34-.29,1.63-.57ZM152.12,57.45c-1.45-.19-3.62,0-5.18,0-.05,0-.56.68-.41-.14.23-1.27,1.2-3.22,1.56-4.71,1.94-8.17,1.47-25.34-9.85-26.22-17.38-1.36-26.27,35.52-11.87,43.75.57.32,2.02,1.1,2.59,1.1,1.45,0,1.78-1.62,2.58-2.48,3.61-3.89,14.51-7.96,19.7-7.14,2.77.44,4.45,2.83,6.18,3.35s3.46-.42,2.95-2.39c-.45-1.75-6.45-4.87-8.25-5.11ZM93.32,74.53c1.58-1.46,1.3-6.55-1.42-6.74-5.17-.36-2.6,10.47,1.42,6.74ZM103.14,68.68c-2.27.43-6.92,4.95-4.38,6.98,2.89,2.32,9.75-4.1,7.2-6.65-.59-.59-2-.48-2.81-.33ZM145.19,78.18c.82-.57,8.16,4.63,6.66-.31-.88-2.92-5.89-5.22-8.72-5.45-2.32-.18-8-.08-7.37,3.28.42.82,2.36.68,3.14.95-9.89,9.76-26.43,13.07-39.83,10.68-5.29-.95-12.21-3.53-16.04-7.4-.79-.8-2.91-4.34-3.45-4.46-1.26-.3-2.01.88-2.01,2,0,5.71,10.66,12.27,15.76,13.28,3.03,6.61,8.61,13.27,15.81,15.39,17.69,5.21,31.87-12.87,36.05-27.97Z"/>
  <path class="st1" d="M177.05,192.59c-.11.89-.2,1.33.13,2.17.95,2.43,2.79,4.68,3.92,6.99,3.84,7.89,4.16,16.69,5.76,25.16-2.74.4-11.76,3.38-13.14,5.52-1.17,1.82.16,3.77,2.35,3.46,1.11-.16,4.45-2.27,5.88-2.84,7.92-3.17,18.08-3.98,25.42,1,5.63,3.82,8.13,11.18,6.1,17.71-.09.29-.07.82-.46.76.17-4.44-2.13-12.3-6.01-14.84-3.3-2.16-6.2,1.48-3.51,3.51,1.16.88,1.38.43,2.38,1.98,2.12,3.26,3.61,9.34,1.9,12.96-.35.73-4.86,1.98-5.93,2.24-.58.14-3.56.87-3.82.68,3.68-4.75,3.3-11.53-.16-16.32-1.17-1.62-4.71-5.32-6.39-2.35-1.25,2.2.81,2.85,1.79,3.95,2.98,3.35,4.07,8.71.82,12.28-.92,1.01-2.43,1.27-2.05,3.26-1.13-.26-2.42.27-3.41.27-7.77.02-17.34-2.32-23.88-6.64-1.31-.86-6.12-4.71-6.63-5.9-.23-.52-.06-1.12-.27-1.64-1.08-2.69-2.55-2.81-.91-5.8,1.39-2.54,3.03-4.2,4.04-7.13,2.33-6.74,1.54-12.05-.42-18.68-1.58-5.36-4.29-7.9-1.6-13.59,1.8-3.81,4.08-6.6,7.92-8.43.5-.24,3.68-1.1,3.99-1.08.69.06,2.53,1.06,3.66,1.23.84.13,1.68.06,2.52.07Z"/>
  <path class="st1" d="M188.02,186.24c1.94,1.64,6.8-.99,8.5-2.38.97-.8,1.7-1.85,2.59-2.72-.8,7.62-9.36,12.94-16.48,9.81-2.87-1.26-5.05-4.36-5.31-7.5-.16-1.93,1.44-5.58-.62-6.47-4.76-2.05-4.31,7.95-3.2,10.42-4.74-1.08-7.28-7.24-5.65-11.51.49-1.29,2.36-3.41.59-4.53-3.34-2.11-5.49,4.73-5.29,7.05-.38.45-1.38-1.38-1.5-1.63-3.06-6.71,2.62-13.97,7.64-17.97.65-.52,3.26-2.53,3.81-2.73.65-.24.54,1.85,1.29,1.99,1.04.57,1.82.7,2.79-.08,1.79-1.42,4.85-6.68,6.68-8.85,1.47-1.74,6.55-6.25,6.5-8.46-.01-.55-.62-1.6-1.12-1.84-1.79-.84-2.83.71-3.46.49-.81-.27-4.6-3.38-5.93-4.18-4.72-2.85-9.88-5.07-14.51-8.1-.63-.24-1.24-.18-1.85.08-1.08.47-.49,1.45-1.43,1.43-.45-2.48-1.25-4.88-1.78-7.35-.86-3.95-.57-8.29-3.94-11.18,1.88-.08,3.76.01,5.57.56,14.1,4.25,45.13,14.51,46.48,32.26.83,10.96-7.09,15.18-14.15,21.01-1.26,1.04-2.32,2.88-.55,4.05,1.42.94,1.92.09,2.99-.25.95-.31,1.1,2.2,1.11,3,.02,4.25-2.36,9.3-6.46,11-1.77.73-4.17.42-3.94,3.17.03.4.35,1.17.65,1.42Z"/>
  <path class="st1" d="M109.71,204.89c-.4,3.72-2.85,6.29-2.37,10.12,1.07,8.66,6.69,12.63,8.96,19.66.65,2.01,1.51,5.64-.15,7.23-3.32,3.18-11,5.32-15.33,6.74-2.51.82-5.69,2.22-8.17,2.73-1.97.41-4.24.3-6.18.63-1.73.29-3.47,1.18-5.47,1.34-3.25.27-6.79-.23-10.03-.59l-.41-.41c-2.41-4.97-.65-11.46,3.35-15.07,1.18-1.07,3.54-1.62,2.1-4.01-1.54-2.56-5.32.51-6.6,1.96-3.44,3.87-5.22,10.3-4.35,15.4-.27.3-2.62-2.13-2.87-2.44-3.58-4.64-1.14-10.13,2.74-13.62,6.29-5.67,17.09-7.73,25.13-5.26,2.06.63,5.42,3.4,7.01,1.43,2.3-2.85-2.63-4.75-4.62-5.45s-4.01-.98-6-1.63c-1.41-3.95-.81-8.16.1-12.16,1.4-6.12,4.93-14.94,10.94-17.68,3.54,4.23,7.49,8.2,12.22,11.09Z"/>
  <path class="st1" d="M173.21,150.86c-8.38,4.42-17.13,12.37-16.91,22.61-3.59,1.97-7.29,3.12-11.34,3.77-9.27,1.5-18.94,1.17-28.1-.76-1.67-9.04-2.19-18.34-1.11-27.5.6.48,1.13.57,1.85.74,10.02,2.24,38.78,1.05,46.25-6.72.21-.22.43-.87.53-.82,1.84,1.92,4.91,6.2,7.9,4.36l.93,4.32Z"/>
  <path class="st1" d="M61.05,133.81c-.48.51-.46,2.17-.09,2.75,1.63,2.59,7.83-2.17,9.29-3.51h.53c2.26,1.69,4.14,3.95,5.12,6.62.79,2.14.48,5.95,3.45,5.51s.79-5.49.44-7.33l14.43-10.37c-1.96,4.38-3.89,8.79-5.25,13.41-1.06,3.63-1.64,7.38-2.64,10.98-6.64,5.82-13.04,7.8-21.44,4.26-5.52-2.33-10.82-6.1-15.35-9.99,2.07-.42,9.34-3.1,9.96-5.02.47-1.48.02-2.87-1.65-3.02-1.77-.16-4.44,1.96-6.33,2.67-4.04,1.51-6.7,1.48-10.61-.43-6.95-3.39-12.9-14.47-10.52-22.06.89-2.84,4.41-4.77,7.3-4.69,5.69.17,10.48,3,12.61,8.38,2.67,6.74-1.77,7.99-7.56,6.75-.59-.41.7-.91.82-1.65.35-2.13-3.01-3.35-4.68-3.75-5.72-1.36-4.55,4.69-1.17,7.44,4.72,3.83,11.05,4.12,15.91.39l1.52-1.75c.41.09-.52,2.77,1.42,3.21,3.65.84,2.78-3.78,2.38-5.94.33-.47,2.8-.2,3.71-.38,2.87-.6,9.95-6.57,10.06-9.58.08-2.19-2.53-3.21-4.08-1.33-1.79,2.18-2.86,4.11-5.47,5.7-3.98,2.42-4.53-.51-4.63-4.06-.1-3.35,4.46-6.77,7.3-7.98,2.29-.97,4.28-1.01,6.72-.59,3.29.56,3.27,3.1,3.17,5.85-.3,8.32-4.8,14.05-11.75,18.22-.7.42-2.61,1.01-2.9,1.32Z"/>
  <path class="st1" d="M162.06,138.91c-2.18,1.57-3.83,2.86-6.4,3.82-7.9,2.96-20.48,3.94-28.9,3.55-2.98-.14-6.48-1.04-9.26-1.1-.43,0-.8.27-1.22.28.99-7.22,3.47-14.01,7.4-20.12,10.85.5,23.19-2.99,30.06-11.76,1.99,2.1,1.6,5.52,2.12,8.23,1.16,5.94,2.58,12.14,6.19,17.1Z"/>
  <path class="st1" d="M157.42,178.15c1,2.48,3.12,6.25,6.29,4.74.02.91,2.35,4.78,2.16,5.05-2.99,1.29-5.73,2.92-7.73,5.48-2.48,3.17-4.8,7.64-5.08,11.68-1.92.19-3.31,1.4-5.23,1.99-3.06.93-7.49.99-10.71.76-3.97-.28-8.23-4.03-10.59-7.12-4.29-5.6-6.75-12.72-8.61-19.46,3.01.42,6.08,1.06,9.13,1.22,10.09.54,21.07-.26,30.36-4.35Z"/>
  <path class="st1" d="M111.38,147.91c-1.01,9.32-.75,18.82.82,28.06-5.59-.92-12.17-2.18-17.07-5.13-.92-.56-1.73-1.5-2.47-1.89-.37-.2-1.33-.28-1.4-.37-.15-.18-.56-4.12-.59-4.72-.42-7.61.85-14.91,2.74-22.22l6.08,3.32c2.52.82,5.16,2.21,7.67,2.96,1.38.41,3.02,1.04,4.23,0Z"/>
  <path class="st1" d="M113.54,116.33c-.4,3.97,2.36,6.6,5.74,8.01-3.06,4.22-4.93,9.43-6.24,14.46-.5,1.91-.67,3.86-1.12,5.7-.06.25.16.57-.4.41-.33-.1-.77-.52-1.24-.67-5.27-1.7-10.85-3.13-15.27-6.59,2.77-8.3,7.43-15.83,12.54-22.86l5.98,1.54Z"/>
  <path class="st1" d="M211.38,118.2c-2.66-.23-2.84,4.22-3.68,6.27-.25.62-1.45,3.45-2.17,3.27-5.07-5.55-11.82-9.74-18.67-12.81.17-.43.45-.63.46-1.16.07-2.49-1.58-8.05-2.59-10.46-1.22-2.9-3.17-5.49-4.14-8.53,12.44,4.12,23.77,12.31,30.79,23.43Z"/>
  <path class="st1" d="M128,208.66c-16.44-4.81-30.69-17.27-35.42-34.05,1.45.67,2.87,1.44,4.36,2.04,5.11,2.06,10.6,3.32,16.09,3.8,2.68,10.37,6.62,21.09,14.97,28.21Z"/>
  <path class="st1" d="M211.92,165.62c.17-3.73.68-7.26-.39-10.92l-1.24-.39c4.47-7.31,3.13-16.23-1.64-23.02,1.3-.11.91-1.17,1.22-1.91,1.14-2.69,2.51-5.32,3.27-8.17,5.64,8.87,8.08,20.43,7.51,30.93-.06,1.11-.7,7.02-1.12,7.6-.24.34-1.51.69-2.14,1.13-1.76,1.23-3.4,3.67-5.47,4.74Z"/>
  <path class="st1" d="M171.05,90.69c.01,2.24,3.64,1.73,4.38,2.64.94,1.15,1.94,4.7,2.66,6.26.83,1.79,2.02,3.65,2.71,5.47.98,2.58,1.23,5.4,2.24,7.97-8.36-3.15-16.91-6.52-25.88-7.36,5.03-4.35,9.92-9.03,13.33-14.81l.56-.17Z"/>
  <path class="st1" d="M222.55,193.68c-.35,2.35-2.28,4.37-3.94,6-2.22,2.18-6.3,5.45-9.14,6.66-5.65,2.42-12.86,1.64-18.79.68-.09-.43.13-.56.41-.82.91-.84,3.13-1.93,4.31-2.77,3.52-2.52,6.84-5.28,9.9-8.34,5.85,2.13,11.5-.43,17.26-1.41Z"/>
  <path class="st1" d="M101.3,43.82c-1.61-.75-2.5-1.04-4.18-.23-3.11,1.51-5.15,6.9-5.11,10.18.01.9.77,3.23.45,3.69l-5.87,2.99c-.43-1.85-1.57-5.37-1.04-7.17.15-.5.36-1.6.6-2.29,1.15-3.34,1.55-5.91,3.39-9.53,1-1.97,6.29-8.4,8.56-7.94,2.49.51,3.35,8.14,3.2,10.3Z"/>
  <path class="st1" d="M35.91,109.22c-.43-.37,2.92-4.07,3.66-4.38.87-.37,1.41-.13,2.14-.31.81-.2,1.68-.89,2.65-1.17,5.22-1.49,9.83,2.25,12.23,6.58-1.81,2.74-3.45,5.36-2.42,8.81-2.11-2.94-5.23-6.95-8.72-8.31-.58-.22-4.34-1.23-4.76-1.23h-4.77Z"/>
  <path class="st1" d="M64.75,104.54l-4.7,2.49c-2.7-4.81-7.42-7.87-12.96-8.3.93-.64,2.14-1.33,3.19-1.71,2.56-.94,6.48-1.45,9.2-1.45,3.31,0,5.89,6.07,5.27,8.97Z"/>
  <path class="st1" d="M186.85,204.03l-2.4-5.09-1.95-3.08c6.54,1.81,12.99-.53,17.43-5.45-.31.97-.86,2.25-1.4,3.09-.44.68-1.37,1.23-1.66,1.89s-.08,1.22-.59,1.86c-1.55,1.95-6.84,4.34-8.98,6-.24.19-.44.46-.44.78Z"/>
  <path class="st1" d="M207.02,186.32c.36-2.32,1.65-4.33,2.32-6.54.81-2.67.88-5.48,1.65-8.16l6.65-4.92c-2.13,7.16-5.87,13.89-10.62,19.62Z"/>
  <path class="st1" d="M202.11,171.34c0-2.22.29-4.67-1.36-6.4l6.64-5.84c.57.31.79.83.74,1.48-.59,2.05-.22,7.78-1.96,8.97-.44.3-3.84,2.03-4.06,1.79Z"/>
  <path class="st1" d="M175.14,137.83c.51-.54,7.62,4.92,8.44,5.58l-5.85,6.4-2.59-11.98Z"/>
  <path class="st1" d="M171.6,142.45c-.64.72-4.75-4.56-5.12-5.09-.56-.79-4.04-6.43-3.59-6.9l7.77,4.63.95,7.36Z"/>
  <path class="st1" d="M154.98,212.75c-2.73-.08-5.59-.07-8.31-.27-.37-.03-1.65-.13-1.77-.54,3.18,0,6.32-1.04,8.99-2.73l1.09,3.54Z"/>
  <path class="st1" d="M204.02,181.42l-.7-3.79-2.02-1.24,4.63-2.04c-.28,2.47-1.1,4.76-1.91,7.08Z"/>
  <path class="st0" d="M145.19,78.18c-4.18,15.1-18.36,33.18-36.05,27.97-7.2-2.12-12.78-8.77-15.81-15.39-5.1-1.02-15.77-7.57-15.76-13.28,0-1.12.75-2.29,2.01-2,.54.13,2.66,3.67,3.45,4.46,3.83,3.87,10.75,6.45,16.04,7.4,13.4,2.39,29.94-.92,39.83-10.68-.78-.26-2.72-.13-3.14-.95-.63-3.37,5.05-3.47,7.37-3.28,2.83.22,7.84,2.53,8.72,5.45,1.5,4.93-5.84-.27-6.66.31Z"/>
  <path class="st0" d="M152.12,57.45c1.79.24,7.8,3.36,8.25,5.11.51,1.98-1.14,2.93-2.95,2.39s-3.41-2.91-6.18-3.35c-5.19-.82-16.09,3.26-19.7,7.14-.79.85-1.12,2.48-2.58,2.48-.58,0-2.02-.78-2.59-1.1-14.4-8.23-5.51-45.11,11.87-43.75,11.32.89,11.8,18.06,9.85,26.22-.35,1.49-1.33,3.44-1.56,4.71-.15.82.36.14.41.14,1.55,0,3.73-.19,5.18,0ZM144.89,44.37c.56-6.67-3.36-17.78-11.86-12.54s-12.9,24.19-7.06,32.41c.47.66,2.05,2.43,2.84,2.07.22-.1,3.45-3.08,3.49-3.32.1-.52-.64-1.51-.74-2.16-.24-1.53-.59-5.91,1.62-5.84.08-.67-.66-.76-.81-1.5-.87-4.42,5.46-14.33,10.44-11.26l2.09,2.13Z"/>
  <path class="st0" d="M103.14,68.68c.81-.15,2.22-.27,2.81.33,2.55,2.55-4.31,8.97-7.2,6.65-2.53-2.03,2.11-6.55,4.38-6.98ZM104.3,70.53c-.46-.5-4.38,2.41-4.08,3.54.56.53,4.45-2.27,4.08-3.54Z"/>
  <path class="st0" d="M93.32,74.53c-4.02,3.72-6.59-7.11-1.42-6.74,2.72.19,3,5.28,1.42,6.74ZM92.04,72.98c.36-1.21.27-2.18-.41-3.27-.76.85-1.01,3.06.41,3.27Z"/>
  <path class="st1" d="M144.89,44.37l-2.09-2.13c-4.98-3.07-11.3,6.84-10.44,11.26.15.74.89.83.81,1.5-2.21-.06-1.85,4.31-1.62,5.84.1.65.84,1.64.74,2.16-.05.24-3.27,3.21-3.49,3.32-.79.36-2.37-1.41-2.84-2.07-5.84-8.22-1.5-27.13,7.06-32.41s12.41,5.87,11.86,12.54Z"/>
  <path class="st1" d="M104.3,70.53c.37,1.27-3.52,4.07-4.08,3.54-.3-1.13,3.62-4.04,4.08-3.54Z"/>
  <path class="st1" d="M92.04,72.98c-1.42-.21-1.17-2.41-.41-3.27.68,1.09.76,2.06.41,3.27Z"/>
</svg>